<svg width="62" height="62" viewBox="0 0 62 62" fill="none" xmlns="http://www.w3.org/2000/svg">
<path d="M38.8125 61.8125H25.875V40.9688H23.1438C21.4763 40.9688 20.125 39.6175 20.125 37.95V32.4875C20.125 30.82 21.4763 29.4688 23.1438 29.4688H25.875V22.2812C25.875 16.33 30.705 11.5 36.6562 11.5H44.4188C46.0863 11.5 47.4375 12.8513 47.4375 14.5188V21.4187C47.4375 23.0862 46.0863 24.4375 44.4188 24.4375H38.8125V29.4688H44.2175C44.6633 29.4665 45.104 29.5635 45.5077 29.7526C45.9114 29.9418 46.2679 30.2185 46.5514 30.5625C46.8349 30.9066 47.0383 31.3094 47.1468 31.7418C47.2553 32.1742 47.2662 32.6254 47.1787 33.0625L46.0863 38.525C45.7988 39.9337 44.5625 40.94 43.125 40.94H38.8125V61.8125ZM30.1875 57.5H34.5V36.6562H42.09L42.665 33.7812H34.5288V23.1438C34.5288 21.4763 35.88 20.125 37.5475 20.125H43.1538V15.8125H36.6562C33.0912 15.8125 30.1875 18.7162 30.1875 22.2812V33.7812H24.4375V36.6562H30.1875V57.5Z" fill="#052A45"/>
<path d="M39.5312 61.8125H22.2812C6.67 61.8125 0 55.1425 0 39.5312V22.2812C0 6.67 6.67 0 22.2812 0H39.5312C55.1425 0 61.8125 6.67 61.8125 22.2812V39.5312C61.8125 55.1425 55.1425 61.8125 39.5312 61.8125ZM22.2812 4.3125C9.0275 4.3125 4.3125 9.0275 4.3125 22.2812V39.5312C4.3125 52.785 9.0275 57.5 22.2812 57.5H39.5312C52.785 57.5 57.5 52.785 57.5 39.5312V22.2812C57.5 9.0275 52.785 4.3125 39.5312 4.3125H22.2812Z" fill="#052A45"/>
</svg>
