<svg width="62" height="62" viewBox="0 0 62 62" fill="none" xmlns="http://www.w3.org/2000/svg">
<path d="M39.5312 61.8125H22.2812C6.67 61.8125 0 55.1425 0 39.5312V22.2812C0 6.67 6.67 0 22.2812 0H39.5312C55.1425 0 61.8125 6.67 61.8125 22.2812V39.5312C61.8125 55.1425 55.1425 61.8125 39.5312 61.8125ZM22.2812 4.3125C9.0275 4.3125 4.3125 9.0275 4.3125 22.2812V39.5312C4.3125 52.785 9.0275 57.5 22.2812 57.5H39.5312C52.785 57.5 57.5 52.785 57.5 39.5312V22.2812C57.5 9.0275 52.785 4.3125 39.5312 4.3125H22.2812Z" fill="#052A45"/>
<path d="M30.9062 43.125C27.668 43.1174 24.5645 41.8276 22.2747 39.5378C19.9849 37.248 18.6951 34.1445 18.6875 30.9062C18.6951 27.668 19.9849 24.5645 22.2747 22.2747C24.5645 19.9849 27.668 18.6951 30.9062 18.6875C34.1445 18.6951 37.248 19.9849 39.5378 22.2747C41.8276 24.5645 43.1174 27.668 43.125 30.9062C43.1174 34.1445 41.8276 37.248 39.5378 39.5378C37.248 41.8276 34.1445 43.1174 30.9062 43.125ZM30.9062 23C26.5363 23 23 26.5363 23 30.9062C23 35.2762 26.5363 38.8125 30.9062 38.8125C35.2763 38.8125 38.8125 35.2762 38.8125 30.9062C38.8125 26.5363 35.2763 23 30.9062 23ZM45.2812 17.9688C44.9075 17.9688 44.5338 17.8825 44.1888 17.7388C43.8438 17.595 43.5275 17.3938 43.24 17.135C42.9813 16.8475 42.7512 16.5313 42.6075 16.1863C42.469 15.8389 42.4006 15.4676 42.4062 15.0938C42.4062 14.72 42.4637 14.3463 42.6075 14.0013C42.78 13.6275 42.9813 13.34 43.24 13.0525C43.3838 12.9375 43.5275 12.7938 43.6713 12.7075C43.8438 12.5925 44.0163 12.5063 44.1888 12.4488C44.7127 12.2309 45.2892 12.1719 45.8464 12.2793C46.4037 12.3866 46.917 12.6555 47.3225 13.0525C47.5812 13.34 47.7825 13.6275 47.9263 14.0013C48.07 14.3463 48.1562 14.72 48.1562 15.0938C48.1562 15.4675 48.07 15.8413 47.9263 16.1863C47.7825 16.5313 47.5812 16.8475 47.3225 17.135C47.035 17.3938 46.7187 17.595 46.3737 17.7388C46.0287 17.8825 45.655 17.9688 45.2812 17.9688Z" fill="#052A45"/>
</svg>
