<svg width="120" height="28" viewBox="0 0 120 28" fill="none" xmlns="http://www.w3.org/2000/svg">
<path d="M10.9365 27.4404C12.0676 27.4404 12.887 26.7813 13.0696 25.815L13.0785 25.7794H12.4907L12.4818 25.8105C12.2769 26.5097 11.7336 26.9327 10.9365 26.9327C9.84548 26.9327 9.12852 26.1133 9.12852 24.8442V24.8397C9.12852 23.5661 9.83657 22.7557 10.9365 22.7557C11.7381 22.7557 12.2858 23.1832 12.4684 23.8467L12.4907 23.909H13.0785L13.0696 23.8734C12.887 22.9115 12.0632 22.248 10.9365 22.248C9.46251 22.248 8.52734 23.25 8.52734 24.8397V24.8442C8.52734 26.4251 9.47141 27.4404 10.9365 27.4404Z" fill="#070052"/>
<path d="M15.7262 27.378C16.4966 27.378 16.8751 26.9372 17.3249 25.9441L18.977 22.3103H18.358L16.9419 25.5879H16.8974L15.4145 22.3103H14.7866L16.6079 26.1935C16.3764 26.6255 16.1181 26.8748 15.6995 26.8748C15.5926 26.8748 15.4857 26.8615 15.4234 26.8437V27.338C15.4679 27.3558 15.5926 27.378 15.7262 27.378Z" fill="#070052"/>
<path d="M24.1274 27.3602H24.7197V22.3282H24.1274V24.5369C23.8825 24.7462 23.406 24.9511 22.8048 24.9511C21.9231 24.9511 21.4065 24.4657 21.4065 23.6597V22.3282H20.8143V23.6819C20.8143 24.7061 21.5089 25.4587 22.7647 25.4587C23.406 25.4587 23.8602 25.2494 24.114 25.0891H24.1274V27.3602Z" fill="#070052"/>
<path d="M26.6772 27.3602H27.3006L27.8617 25.864H30.0482L30.6048 27.3602H31.2283L29.2644 22.3282H28.6455L26.6772 27.3602ZM28.9483 22.965H28.9616L29.8745 25.4008H28.0354L28.9483 22.965Z" fill="#070052"/>
<path d="M35.4035 27.4404C36.5346 27.4404 37.3539 26.7813 37.5365 25.815L37.5454 25.7794H36.9576L36.9487 25.8105C36.7439 26.5097 36.2006 26.9327 35.4035 26.9327C34.3124 26.9327 33.5955 26.1133 33.5955 24.8442V24.8397C33.5955 23.5661 34.3035 22.7557 35.4035 22.7557C36.205 22.7557 36.7528 23.1832 36.9353 23.8467L36.9576 23.909H37.5454L37.5365 23.8734C37.3539 22.9115 36.5301 22.248 35.4035 22.248C33.9295 22.248 32.9943 23.25 32.9943 24.8397V24.8442C32.9943 26.4251 33.9384 27.4404 35.4035 27.4404Z" fill="#070052"/>
<path d="M39.6677 27.3602H40.2555V25.0312H43.2436V27.3602H43.8314V22.3282H43.2436V24.5369H40.2555V22.3282H39.6677V27.3602Z" fill="#070052"/>
<path d="M45.8067 27.3602H46.4301L46.9912 25.864H49.1777L49.7344 27.3602H50.3578L48.394 22.3282H47.775L45.8067 27.3602ZM48.0778 22.965H48.0911L49.004 25.4008H47.1649L48.0778 22.965Z" fill="#070052"/>
<path d="M59.6121 27.3602V22.3282H55.5018V27.3602H56.0897V22.8225H59.0243V27.3602H59.6121Z" fill="#070052"/>
<path d="M64.2014 27.4404C65.6888 27.4404 66.6195 26.4384 66.6195 24.8442V24.8397C66.6195 23.2544 65.6888 22.248 64.197 22.248C62.7141 22.248 61.7744 23.25 61.7744 24.8397V24.8442C61.7744 26.4384 62.7096 27.4404 64.2014 27.4404ZM64.2059 26.9327C63.0881 26.9327 62.3756 26.1267 62.3756 24.8442V24.8353C62.3756 23.5572 63.0837 22.7512 64.2014 22.7512C65.3102 22.7512 66.0228 23.5572 66.0228 24.8353V24.8442C66.0228 26.1133 65.3236 26.9327 64.2059 26.9327Z" fill="#070052"/>
<path d="M68.6571 27.3959C69.4988 27.3959 69.8506 26.7457 69.9218 25.5612L70.0999 22.8225H72.1885V27.3602H72.7763V22.3282H69.5611L69.3652 25.5255C69.3117 26.4162 69.1069 26.8837 68.5948 26.8837C68.528 26.8837 68.4434 26.8704 68.3899 26.857V27.3602C68.4523 27.378 68.5547 27.3959 68.6571 27.3959Z" fill="#070052"/>
<path d="M75.1479 27.3602H75.7357V22.3282H75.1479V27.3602Z" fill="#070052"/>
<path d="M78.6952 27.3602V22.8225H81.2424V22.3282H78.1074V27.3602H78.6952Z" fill="#070052"/>
<path d="M83.3201 27.3602H83.9079V25.5122H85.1682C86.1924 25.5122 86.8915 24.8709 86.8915 23.9179V23.9135C86.8915 22.9561 86.1924 22.3282 85.1682 22.3282H83.3201V27.3602ZM85.0257 22.8136C85.8139 22.8136 86.2904 23.2232 86.2904 23.9179V23.9224C86.2904 24.6126 85.8139 25.0268 85.0257 25.0268H83.9079V22.8136H85.0257Z" fill="#070052"/>
<path d="M88.5952 27.3602H89.2186L89.7797 25.864H91.9662L92.5229 27.3602H93.1463L91.1825 22.3282H90.5635L88.5952 27.3602ZM90.8663 22.965H90.8797L91.7926 25.4008H89.9534L90.8663 22.965Z" fill="#070052"/>
<path d="M97.2502 27.3914H97.8381V26.8882H97.8425C99.2942 26.8615 100.216 26.0733 100.216 24.8397V24.8308C100.216 23.5884 99.2942 22.8046 97.8425 22.7779H97.8381V22.3014H97.2502V22.7779C95.7985 22.8046 94.8767 23.5884 94.8767 24.8308V24.8397C94.8767 26.0733 95.7941 26.8615 97.2502 26.8882V27.3914ZM97.2547 26.4028C96.1637 26.3716 95.4779 25.7705 95.4779 24.8397V24.8308C95.4779 23.8957 96.1592 23.29 97.2547 23.2678H97.2591V26.4028H97.2547ZM97.8381 26.4028V23.2678C98.9335 23.29 99.6149 23.8957 99.6149 24.8308V24.8397C99.6149 25.7705 98.9335 26.3716 97.8381 26.4028Z" fill="#070052"/>
<path d="M102.343 27.3602H102.931V22.3282H102.343V27.3602Z" fill="#070052"/>
<path d="M108.825 27.3602V22.3282H106.914C105.872 22.3282 105.182 22.9382 105.182 23.8467V23.8511C105.182 24.6126 105.699 25.1426 106.451 25.294L104.946 27.3602H105.623L107.075 25.3652H108.237V27.3602H108.825ZM108.237 24.8887H107.034C106.251 24.8887 105.783 24.5013 105.783 23.8556V23.8467C105.783 23.1965 106.251 22.818 107.034 22.818H108.237V24.8887Z" fill="#070052"/>
<path d="M0 17.3435H6.49595C9.77824 17.3435 12.0541 15.2412 12.0541 12.1346V12.1112C12.0541 9.0513 9.73249 6.96074 6.40446 6.96074H2.95063V3.02489H10.4873V0.490522H0V17.3435ZM2.95063 14.8675V9.36663H5.74114C7.83403 9.36663 9.0463 10.336 9.0463 12.1112V12.1346C9.0463 13.8981 7.83403 14.8675 5.75258 14.8675H2.95063Z" fill="#070052"/>
<path d="M15.9311 3.18839C16.8231 3.18839 17.5208 2.46429 17.5208 1.60004C17.5208 0.712425 16.8231 0 15.9311 0C15.039 0 14.3414 0.712425 14.3414 1.60004C14.3414 2.46429 15.039 3.18839 15.9311 3.18839ZM14.5015 17.3435H17.3607V4.96362H14.5015V17.3435Z" fill="#070052"/>
<path d="M29.4605 4.96362H19.1791V7.21768H22.8959V17.3435H25.7436V7.21768H29.4605V4.96362Z" fill="#070052"/>
<path d="M39.1701 17.3435H42.0178V4.96362H39.1701V9.84548H34.0694V4.96362H31.2217V17.3435H34.0694V12.0995H39.1701V17.3435Z" fill="#070052"/>
<path d="M49.8747 17.5887C53.0427 17.5887 54.8268 15.6733 55.2156 13.7697L55.2385 13.6412H52.5738L52.5509 13.7229C52.2764 14.5522 51.3615 15.323 49.9319 15.323C48.0792 15.323 46.9127 14.0383 46.8784 11.866H55.3643V10.9316C55.3643 7.19432 53.2142 4.70668 49.7375 4.70668C46.2722 4.70668 44.0421 7.27608 44.0421 11.1769V11.1886C44.0421 15.1244 46.2379 17.5887 49.8747 17.5887ZM49.7718 6.9841C51.2814 6.9841 52.3793 7.96514 52.5852 9.92723H46.9127C47.13 8.02354 48.2736 6.9841 49.7718 6.9841Z" fill="#070052"/>
<path d="M66.4463 4.96362H56.1648V7.21768H59.8817V17.3435H62.7294V7.21768H66.4463V4.96362Z" fill="#070052"/>
<path fill-rule="evenodd" clip-rule="evenodd" d="M72.0434 10.423L68.1348 13.0287L67.4121 11.9446L71.3207 9.33891L72.0434 10.423Z" fill="#070052"/>
<path fill-rule="evenodd" clip-rule="evenodd" d="M99.7434 17.6345C101.724 17.6345 102.698 16.5009 103.854 13.9473L108.103 4.6033H106.511L102.87 13.0312H102.755L98.9418 4.6033H97.3272L102.011 14.5886C101.415 15.6993 100.751 16.3406 99.6747 16.3406C99.3999 16.3406 99.125 16.3062 98.9647 16.2604V17.5315C99.0792 17.5773 99.3999 17.6345 99.7434 17.6345ZM85.3151 17.5887V16.3177H83.586V4.64911H75.1925L74.6657 12.8709C74.5627 14.6115 74.1962 15.8024 73.2229 16.3177H72.2725V17.5887H73.6695H83.9067H85.3151ZM76.5551 5.92017L76.0971 12.9396C75.994 14.4397 75.7879 15.5275 75.078 16.249V16.3177H82.0745V5.92017H76.5551ZM88.6359 17.5887H87.1244V4.64911H91.8766C94.5103 4.64911 96.3081 6.2637 96.3081 8.72566V8.73711C96.3081 11.1876 94.5103 12.8366 91.8766 12.8366H88.6359V17.5887ZM94.7622 8.73711C94.7622 6.95075 93.5369 5.89726 91.5101 5.89726H88.6359V11.5884H91.5101C93.5369 11.5884 94.7622 10.5235 94.7622 8.74856V8.73711ZM111.24 11.5541V17.5887H109.729V4.64911H111.24V10.409H111.733L117.573 4.64911H119.451L113.027 10.8555L120 17.5887H117.996L111.733 11.5541H111.24Z" fill="#070052"/>
</svg>
