<svg width="50" height="50" viewBox="0 0 50 50" fill="none" xmlns="http://www.w3.org/2000/svg">
<path d="M25 49C38.2552 49 49 38.2552 49 25C49 11.7448 38.2552 1 25 1C11.7448 1 1 11.7448 1 25C1 38.2552 11.7448 49 25 49ZM16.6 25H31H16.6Z" fill="black" fill-opacity="0.15"/>
<path d="M16.6 25H31M25 49C38.2552 49 49 38.2552 49 25C49 11.7448 38.2552 1 25 1C11.7448 1 1 11.7448 1 25C1 38.2552 11.7448 49 25 49Z" stroke="white" stroke-width="2" stroke-linecap="round" stroke-linejoin="round"/>
<path d="M26.2002 32.2L33.4002 25L26.2002 17.8" fill="white" fill-opacity="0.05"/>
<path d="M26.2002 32.2L33.4002 25L26.2002 17.8" stroke="white" stroke-width="2" stroke-linecap="round" stroke-linejoin="round"/>
</svg>
