<svg width="73" height="73" viewBox="0 0 73 73" fill="none" xmlns="http://www.w3.org/2000/svg">
<rect width="73" height="73" fill="white"/>
<path d="M8 52H19.756C25.6961 52 29.8148 48.1331 29.8148 42.4186V42.3756C29.8148 36.7471 25.6133 32.9016 19.5904 32.9016H13.3399V25.6618H26.9793V21H8V52ZM13.3399 47.4456V37.3271H18.39C22.1776 37.3271 24.3715 39.1102 24.3715 42.3756V42.4186C24.3715 45.6625 22.1776 47.4456 18.4107 47.4456H13.3399Z" fill="#070052"/>
<path fill-rule="evenodd" clip-rule="evenodd" d="M66.5557 52V48.9549H62.4459V21H42.496L41.244 40.6973C40.999 44.8673 40.1281 47.7204 37.8147 48.9549H35.5557V52H38.8761H63.208H66.5557ZM45.7348 24.0451L44.6461 40.8619C44.4011 44.4558 43.9112 47.0619 42.2238 48.7903V48.9549H58.8533V24.0451H45.7348Z" fill="#070052"/>
<path fill-rule="evenodd" clip-rule="evenodd" d="M39.1255 33.2441L32.2366 37.8367L30.9629 35.926L37.8518 31.3334L39.1255 33.2441Z" fill="#070052"/>
</svg>
